<?xml version="1.0" encoding="UTF-8" standalone="no"?>
<!DOCTYPE svg PUBLIC "-//W3C//DTD SVG 1.1//EN" "http://www.w3.org/Graphics/SVG/1.1/DTD/svg11.dtd">
<svg version="1.1" xmlns="http://www.w3.org/2000/svg" xmlns:xlink="http://www.w3.org/1999/xlink" preserveAspectRatio="xMidYMid meet" viewBox="0 0 640 640" width="32" height="32"><defs><path d="M563.44 142.51C590.48 126.21 611.28 100.53 621.12 69.89C595.76 84.69 567.65 95.47 537.73 101.47C513.84 75.89 479.79 59.89 441.97 59.89C369.52 59.89 310.77 118.64 310.77 191.01C310.77 201.41 311.97 211.41 314.16 220.99C205.09 215.84 108.43 163.47 43.73 84.29C32.35 103.55 25.97 125.92 25.97 150.29C25.97 195.89 49.17 235.97 84.32 259.52C62.8 258.83 42.56 252.91 24.91 243.09C24.91 243.26 24.91 244.56 24.91 244.72C24.91 308.32 70.05 361.36 130.13 373.44C119.12 376.4 107.49 378 95.57 378C87.2 378 79.17 377.2 71.15 375.71C87.97 427.79 136.35 465.76 193.92 466.83C149.12 502 92.35 522.96 31.2 522.96C20.8 522.96 10.43 522.35 0 521.17C58.37 558.35 127.15 580.08 201.52 580.08C442.96 580.08 574.83 380.19 574.83 207.12C574.83 201.55 574.83 195.92 574.43 190.32C600.05 171.95 622.43 148.72 640.03 122.37C639.94 122.34 639.53 122.16 638.77 121.84C606.24 133.47 581.13 140.36 563.44 142.51Z" id="g1g0YzthGI"></path></defs><g><g><g><use xlink:href="#g1g0YzthGI" opacity="1" fill="#1da1f2" fill-opacity="1"></use><g><use xlink:href="#g1g0YzthGI" opacity="1" fill-opacity="0" stroke="#000000" stroke-width="1" stroke-opacity="0"></use></g></g></g></g></svg>